<mxfile host="65bd71144e">
    <diagram id="lH9BmZlKXxKSebQU3wEV" name="Page-1">
        <mxGraphModel dx="5920" dy="1633" grid="1" gridSize="10" guides="1" tooltips="1" connect="1" arrows="1" fold="1" page="1" pageScale="1" pageWidth="850" pageHeight="1100" background="#ffffff" math="0" shadow="0">
            <root>
                <mxCell id="0"/>
                <mxCell id="1" parent="0"/>
                <mxCell id="34" value="" style="rounded=0;whiteSpace=wrap;html=1;fillColor=none;strokeColor=#000000;" vertex="1" parent="1">
                    <mxGeometry x="-3400" width="850" height="800" as="geometry"/>
                </mxCell>
                <mxCell id="2" value="" style="shape=umlLifeline;participant=umlActor;perimeter=lifelinePerimeter;whiteSpace=wrap;html=1;container=0;collapsible=0;recursiveResize=0;verticalAlign=top;spacingTop=36;outlineConnect=0;strokeWidth=2;strokeColor=#82b366;fillColor=#d5e8d4;" parent="1" vertex="1">
                    <mxGeometry x="-3190" y="120" width="20" height="640" as="geometry"/>
                </mxCell>
                <mxCell id="3" value="&lt;b&gt;Software&lt;/b&gt;&lt;br&gt;( Client Side )&amp;nbsp;" style="shape=umlLifeline;perimeter=lifelinePerimeter;whiteSpace=wrap;html=1;container=0;collapsible=0;recursiveResize=0;outlineConnect=0;strokeColor=#b85450;strokeWidth=2;fillColor=#f8cecc;fontColor=#000000;" parent="1" vertex="1">
                    <mxGeometry x="-3070" y="120" width="100" height="640" as="geometry"/>
                </mxCell>
                <mxCell id="5" value="&lt;b&gt;API&lt;/b&gt;&lt;br&gt;( Server Side )" style="shape=umlLifeline;perimeter=lifelinePerimeter;whiteSpace=wrap;html=1;container=0;collapsible=0;recursiveResize=0;outlineConnect=0;strokeColor=#9673a6;strokeWidth=2;fillColor=#e1d5e7;fontColor=#000000;" parent="1" vertex="1">
                    <mxGeometry x="-2910" y="120" width="100" height="640" as="geometry"/>
                </mxCell>
                <mxCell id="7" value="&lt;b&gt;Python process&lt;/b&gt;&lt;br&gt;( pytube )" style="shape=umlLifeline;perimeter=lifelinePerimeter;whiteSpace=wrap;html=1;container=0;collapsible=0;recursiveResize=0;outlineConnect=0;strokeColor=#10739e;strokeWidth=2;fillColor=#b1ddf0;fontColor=#000000;" parent="1" vertex="1">
                    <mxGeometry x="-2750" y="120" width="100" height="640" as="geometry"/>
                </mxCell>
                <mxCell id="22" value="" style="html=1;points=[];perimeter=orthogonalPerimeter;strokeColor=#82b366;strokeWidth=2;fillColor=#d5e8d4;" parent="1" vertex="1">
                    <mxGeometry x="-3185" y="200" width="10" height="40" as="geometry"/>
                </mxCell>
                <mxCell id="24" value="&lt;b&gt;Click on&lt;/b&gt; button&lt;br&gt;&quot;&lt;i&gt;Remove Playlist&lt;/i&gt;&quot;" style="html=1;verticalAlign=bottom;endArrow=block;fontColor=#000000;labelBackgroundColor=none;strokeWidth=2;fillColor=#d5e8d4;gradientColor=#97d077;strokeColor=#82b366;" edge="1" parent="1">
                    <mxGeometry width="80" relative="1" as="geometry">
                        <mxPoint x="-3175" y="200" as="sourcePoint"/>
                        <mxPoint x="-3021" y="200" as="targetPoint"/>
                    </mxGeometry>
                </mxCell>
                <mxCell id="26" value="&lt;b&gt;&lt;font style=&quot;font-size: 20px&quot;&gt;Alt&lt;/font&gt;&lt;/b&gt;" style="shape=umlFrame;tabWidth=110;tabHeight=30;tabPosition=left;html=1;boundedLbl=1;labelInHeader=1;width=140;height=30;fillColor=none;strokeColor=#4D4D4D;strokeWidth=2;fontColor=#000000;" vertex="1" parent="1">
                    <mxGeometry x="-3360" y="360" width="700" height="240" as="geometry"/>
                </mxCell>
                <mxCell id="27" value="[ if an error occuredÂ &#10;during &quot;remove playlist&quot;&#10;action ]" style="text;fontColor=#000000;fontSize=15;" vertex="1" parent="26">
                    <mxGeometry width="100" height="20" relative="1" as="geometry">
                        <mxPoint x="10" y="40" as="offset"/>
                    </mxGeometry>
                </mxCell>
                <mxCell id="28" value="[ Else ]" style="line;strokeWidth=2;dashed=1;labelPosition=center;verticalLabelPosition=bottom;align=left;verticalAlign=top;spacingLeft=20;spacingTop=15;fontColor=#000000;strokeColor=#4D4D4D;labelBackgroundColor=none;fontSize=15;" vertex="1" parent="26">
                    <mxGeometry y="115.20107142857141" width="700" height="9.6" as="geometry"/>
                </mxCell>
                <mxCell id="31" value="&lt;b&gt;Display &lt;/b&gt;error&lt;br&gt;&quot;&lt;i&gt;Cannot remove playlist&lt;/i&gt;&quot;" style="html=1;verticalAlign=bottom;endArrow=block;fontColor=#000000;labelBackgroundColor=#FFFFFF;strokeWidth=2;fillColor=#f8cecc;strokeColor=#b85450;" edge="1" parent="26">
                    <mxGeometry y="44" width="80" relative="1" as="geometry">
                        <mxPoint x="346" y="40" as="sourcePoint"/>
                        <mxPoint x="346" y="80" as="targetPoint"/>
                        <Array as="points">
                            <mxPoint x="386" y="40"/>
                            <mxPoint x="386" y="80"/>
                        </Array>
                        <mxPoint as="offset"/>
                    </mxGeometry>
                </mxCell>
                <mxCell id="32" value="&lt;b&gt;Display &lt;/b&gt;succes message&lt;br&gt;&quot;&lt;i&gt;Playlist removed&lt;/i&gt;&quot;" style="html=1;verticalAlign=bottom;endArrow=block;fontColor=#000000;labelBackgroundColor=#FFFFFF;strokeWidth=2;fillColor=#f8cecc;strokeColor=#b85450;" edge="1" parent="26">
                    <mxGeometry y="44" width="80" relative="1" as="geometry">
                        <mxPoint x="345" y="160" as="sourcePoint"/>
                        <mxPoint x="345" y="200" as="targetPoint"/>
                        <Array as="points">
                            <mxPoint x="385" y="160"/>
                            <mxPoint x="385" y="200"/>
                        </Array>
                        <mxPoint as="offset"/>
                    </mxGeometry>
                </mxCell>
                <mxCell id="4" value="" style="html=1;points=[];perimeter=orthogonalPerimeter;strokeColor=#ae4132;strokeWidth=2;fillColor=#fad9d5;" parent="1" vertex="1">
                    <mxGeometry x="-3025" y="200" width="10" height="360" as="geometry"/>
                </mxCell>
                <mxCell id="25" value="&lt;b&gt;Try to Update&lt;/b&gt; Local Data&lt;br&gt;&lt;i&gt;&quot;remove playlist&quot;&lt;/i&gt;" style="html=1;verticalAlign=bottom;endArrow=block;fontColor=#000000;labelBackgroundColor=#FFFFFF;strokeWidth=2;fillColor=#f8cecc;strokeColor=#b85450;" edge="1" parent="1">
                    <mxGeometry y="35" width="80" relative="1" as="geometry">
                        <mxPoint x="-3015" y="280" as="sourcePoint"/>
                        <mxPoint x="-3015" y="320" as="targetPoint"/>
                        <Array as="points">
                            <mxPoint x="-2975" y="280"/>
                            <mxPoint x="-2975" y="320"/>
                        </Array>
                        <mxPoint as="offset"/>
                    </mxGeometry>
                </mxCell>
                <mxCell id="33" value="Remove Playlist - Sequences Diagram" style="text;align=center;fontStyle=1;verticalAlign=middle;spacingLeft=3;spacingRight=3;strokeColor=none;rotatable=0;points=[[0,0.5],[1,0.5]];portConstraint=eastwest;fontColor=#000000;fontSize=25;" vertex="1" parent="1">
                    <mxGeometry x="-3015" y="46" width="80" height="26" as="geometry"/>
                </mxCell>
            </root>
        </mxGraphModel>
    </diagram>
</mxfile>